<svg width="30" height="30" viewBox="0 0 30 30" fill="none" xmlns="http://www.w3.org/2000/svg">
	<g clip-path="url(#clip0_3_4)">
		<path d="M0.69699 30C0.528533 30 0.364654 29.9334 0.243118 29.8105C0.0829012 29.6484 0.0211033 29.4131 0.0812991 29.1932L2.0316 22.0713C0.817382 19.8756 0.1772 17.3918 0.178116 14.8705C0.181549 6.67076 6.85436 0 15.0534 0C19.0302 0.00160218 22.7669 1.55067 25.5755 4.36134C28.3836 7.17224 29.9295 10.9087 29.9284 14.8824C29.9247 23.0823 23.2519 29.7535 15.0534 29.7535C15.0534 29.7535 15.0472 29.7535 15.0469 29.7535C12.6522 29.7526 10.278 29.1689 8.16402 28.0634L0.858809 29.9792C0.805251 29.9931 0.750777 30 0.69699 30V30Z" fill="#E5E5E5" />
		<path d="M0.69696 29.3616L2.71662 21.9864C1.47081 19.8278 0.815521 17.3792 0.816437 14.8707C0.819641 7.02301 7.20591 0.638367 15.0534 0.638367C18.8615 0.639969 22.436 2.1222 25.1239 4.81247C27.8117 7.50274 29.2914 11.0788 29.2901 14.8821C29.2866 22.7295 22.8994 29.1151 15.0534 29.1151C15.0529 29.1151 15.0536 29.1151 15.0534 29.1151H15.0472C12.6645 29.1142 10.3235 28.5166 8.24412 27.3825L0.69696 29.3616ZM8.59362 24.8059L9.02598 25.0621C10.8424 26.1401 12.925 26.7102 15.0488 26.7114H15.0534C21.5751 26.7114 26.8834 21.4041 26.8861 14.8812C26.8873 11.7201 25.6577 8.74763 23.4236 6.51169C21.1892 4.27575 18.2186 3.04368 15.0577 3.04231C8.53068 3.04231 3.22267 8.34892 3.22016 14.8716C3.21924 17.1068 3.84455 19.2835 5.02924 21.1672L5.31077 21.6149L4.11509 25.9801L8.59362 24.8059Z" fill="white" />
		<path d="M1.19202 28.8648L3.14186 21.7445C1.93886 19.6608 1.30646 17.2966 1.30714 14.8753C1.31012 7.2993 7.4755 1.13574 15.0508 1.13574C18.7276 1.13734 22.1784 2.56831 24.7728 5.16544C27.3678 7.76256 28.7961 11.2148 28.7947 14.886C28.7915 22.4623 22.6259 28.6265 15.0515 28.6265C15.0508 28.6265 15.0517 28.6265 15.0515 28.6265H15.0453C12.7453 28.6256 10.4851 28.0484 8.47778 26.9543L1.19202 28.8648Z" fill="#A7A7A7" />
		<path d="M0.69696 29.3616L2.71662 21.9864C1.47081 19.8278 0.815521 17.3792 0.816437 14.8707C0.819641 7.02301 7.20591 0.638367 15.0534 0.638367C18.8615 0.639969 22.436 2.1222 25.1239 4.81247C27.8117 7.50274 29.2914 11.0788 29.2901 14.8821C29.2866 22.7295 22.8994 29.1151 15.0534 29.1151C15.0529 29.1151 15.0536 29.1151 15.0534 29.1151H15.0472C12.6645 29.1142 10.3235 28.5166 8.24412 27.3825L0.69696 29.3616ZM8.59362 24.8059L9.02598 25.0621C10.8424 26.1401 12.925 26.7102 15.0488 26.7114H15.0534C21.5751 26.7114 26.8834 21.4041 26.8861 14.8812C26.8873 11.7201 25.6577 8.74763 23.4236 6.51169C21.1892 4.27575 18.2186 3.04368 15.0577 3.04231C8.53068 3.04231 3.22267 8.34892 3.22016 14.8716C3.21924 17.1068 3.84455 19.2835 5.02924 21.1672L5.31077 21.6149L4.11509 25.9801L8.59362 24.8059Z" fill="white" />
		<path fill-rule="evenodd" clip-rule="evenodd" d="M11.4952 8.92069C11.2287 8.32834 10.9481 8.31644 10.6945 8.30614C10.4872 8.29721 10.2498 8.29767 10.0129 8.29767C9.7758 8.29767 9.39036 8.38694 9.06443 8.74285C8.73828 9.09876 7.81909 9.95936 7.81909 11.7096C7.81909 13.4601 9.09396 15.1513 9.2718 15.3889C9.44964 15.6263 11.7327 19.3328 15.3484 20.7587C18.3534 21.9439 18.9647 21.7082 19.617 21.6489C20.2693 21.5896 21.7216 20.7883 22.018 19.9577C22.3146 19.127 22.3146 18.4152 22.2256 18.2662C22.1365 18.1181 21.8994 18.0291 21.5437 17.8512C21.188 17.6734 19.4392 16.8126 19.113 16.694C18.7869 16.5752 18.5497 16.5162 18.3126 16.8723C18.0753 17.228 17.3941 18.0291 17.1865 18.2662C16.9789 18.504 16.7713 18.5338 16.4156 18.3557C16.06 18.1774 14.9142 17.802 13.5551 16.5901C12.4977 15.6473 11.7835 14.4828 11.5759 14.1266C11.3686 13.771 11.5725 13.5952 11.7323 13.4008C12.02 13.0509 12.5027 12.4217 12.6213 12.1846C12.7398 11.947 12.6805 11.7394 12.5917 11.5613C12.5027 11.3835 11.8112 9.62428 11.4952 8.92069V8.92069Z" fill="white" />
	</g>
	<defs>
		<clipPath id="clip0_3_4">
			<rect width="30" height="30" fill="white" />
		</clipPath>
	</defs>
</svg>
