<svg width="13" height="14" viewBox="0 0 13 14" fill="none" xmlns="http://www.w3.org/2000/svg">
<path d="M6.5 7.875C6.09826 7.875 5.70554 7.74671 5.3715 7.50634C5.03746 7.26598 4.77711 6.92433 4.62337 6.52462C4.46963 6.12491 4.4294 5.68507 4.50778 5.26074C4.58616 4.83641 4.77962 4.44663 5.06369 4.14071C5.34777 3.83478 5.7097 3.62644 6.10372 3.54203C6.49775 3.45763 6.90616 3.50095 7.27733 3.66651C7.64849 3.83208 7.96573 4.11246 8.18892 4.47219C8.41212 4.83192 8.53125 5.25485 8.53125 5.6875C8.53061 6.26745 8.31639 6.82344 7.9356 7.23353C7.55481 7.64362 7.03852 7.87431 6.5 7.875V7.875ZM6.5 4.375C6.25896 4.375 6.02332 4.45198 5.8229 4.5962C5.62248 4.74042 5.46627 4.9454 5.37402 5.18523C5.28178 5.42506 5.25764 5.68896 5.30467 5.94356C5.35169 6.19816 5.46777 6.43202 5.63821 6.61558C5.80866 6.79914 6.02582 6.92414 6.26223 6.97478C6.49865 7.02542 6.7437 6.99943 6.9664 6.90009C7.18909 6.80075 7.37944 6.63253 7.51335 6.41669C7.64727 6.20085 7.71875 5.94709 7.71875 5.6875C7.71843 5.33951 7.58992 5.00587 7.36143 4.75981C7.13294 4.51374 6.82313 4.37535 6.5 4.375V4.375Z" fill="#A7A7A7"/>
<path d="M6.5 13.125L3.07288 8.77231C3.02526 8.70696 2.97813 8.64118 2.9315 8.575C2.34609 7.74453 2.02984 6.73016 2.03125 5.6875C2.03125 4.41115 2.50207 3.18707 3.34012 2.28455C4.17817 1.38203 5.31482 0.875 6.5 0.875C7.68519 0.875 8.82184 1.38203 9.65989 2.28455C10.4979 3.18707 10.9688 4.41115 10.9688 5.6875C10.9702 6.72969 10.6541 7.7436 10.0689 8.57369L10.0685 8.575C10.0685 8.575 9.94663 8.74738 9.92835 8.77056L6.5 13.125ZM3.57988 8.04781C3.58069 8.04781 3.67494 8.18256 3.69647 8.21144L6.5 11.7723L9.30719 8.20662C9.32507 8.18256 9.42013 8.04694 9.42054 8.0465C9.89875 7.36799 10.1572 6.53933 10.1563 5.6875C10.1563 4.64321 9.77104 3.64169 9.08536 2.90327C8.39968 2.16484 7.4697 1.75 6.5 1.75C5.53031 1.75 4.60033 2.16484 3.91465 2.90327C3.22897 3.64169 2.84375 4.64321 2.84375 5.6875C2.8429 6.53985 3.10163 7.36899 3.58029 8.04781H3.57988Z" fill="#A7A7A7"/>
</svg>
