<svg width="512" height="512" viewBox="0 0 512 512" fill="none" xmlns="http://www.w3.org/2000/svg">
	<g clip-path="url(#clip0_322_870)">
		<path d="M0 0H512V512H0V0Z" fill="black" />
		<path d="M55.7225 416H247.723V448H55.7225V416ZM47.7012 132.011L61.9518 118.528C64.7027 122.869 69.3667 125.629 74.4958 125.952C79.9572 125.952 83.5412 122.112 83.5412 114.688V64.1707H105.557V114.859C106.223 123.112 103.371 131.262 97.7065 137.301C92.3108 142.571 85.1484 145.602 77.6552 145.835L75.7758 145.835C65.3324 146.255 55.3574 141.671 48.875 133.57L47.7012 132.011ZM115.456 64.1707H179.712V82.8587H137.045V95.0613H175.36V112.128H137.387V124.843H180.053V143.616H115.2L115.456 64.1707ZM211.029 83.5413H187.136V64.1707H257.195V83.5413H233.216V144.043H211.029V83.5413ZM56.5758 175.616H94.2932C102.203 174.965 110.042 177.517 116.053 182.699C119.481 186.134 121.36 190.818 121.259 195.669C121.389 203.654 116.41 210.831 108.885 213.504C118.264 215.223 124.997 223.513 124.757 233.045C124.757 247.467 113.579 256 94.4638 256H56.5758V175.616ZM99.2425 200.277C99.2425 195.84 95.6585 193.451 89.1732 193.451H78.1652V207.445H88.8318C95.4878 207.445 99.4132 205.141 99.4132 200.533L99.2425 200.277ZM91.5625 222.976H78.1652V237.739H91.9892C98.8158 237.739 102.571 235.093 102.571 230.4C102.411 226.179 99.5759 223.37 93.1626 223.014L91.5625 222.976ZM177.408 256L161.28 231.765H153.856V256H131.669L131.84 175.616H167.253C176.723 174.845 186.105 177.921 193.28 184.149C197.719 188.685 200.245 194.726 200.384 201.028L200.363 202.752C200.678 213.639 194.07 223.533 183.893 227.413L199.484 250.735L231.168 175.019H252.501L286.635 255.573H262.827L257.109 241.152H226.133L220.416 256H177.408ZM241.664 201.301L232.618 223.915H250.624L241.664 201.301ZM165.888 194.816H154.027V214.187L165.973 214.016C173.397 214.016 177.92 210.347 177.92 204.459C177.92 198.059 173.227 194.816 165.888 194.816ZM290.133 175.36H312.32V255.317H290.133V175.36ZM320.512 175.36H341.333L370.091 218.027V175.36H392.021V255.317H372.651L342.528 211.456V255.317H320.512V175.36ZM395.691 243.456L407.979 228.693C415.176 234.71 424.2 238.11 433.579 238.336C439.637 238.336 442.795 236.203 442.795 232.789C442.795 230.211 441.405 228.606 436.269 226.916L433.832 226.183C433.385 226.059 432.918 225.934 432.429 225.807L429.227 225.024L427.476 224.615L424.069 223.771L420.803 222.875C408.046 219.157 399.104 213.651 399.104 200.021C399.104 185.173 410.88 174.421 430.08 174.421C441.948 173.977 453.59 177.756 462.933 185.088L452.267 200.277C445.811 195.4 437.997 192.656 429.909 192.427C424.533 192.427 421.888 194.56 421.888 197.547C421.888 200.25 423.37 201.842 428.623 203.483L431.111 204.192C431.567 204.312 432.043 204.433 432.541 204.555L435.797 205.312C454.144 209.323 465.493 215.296 465.493 230.229C465.493 245.985 453.453 255.201 435.152 255.798L433.237 255.829C420.484 256.372 407.954 252.54 397.709 245.011L395.691 243.456Z" fill="white" />
	</g>
	<defs>
		<clipPath id="clip0_322_870">
			<rect width="512" height="512" fill="white" />
		</clipPath>
	</defs>
</svg>
